<?xml version="1.0" encoding="utf-8"?>
<svg xmlns="http://www.w3.org/2000/svg" viewBox="0 0 24 24" width="20" height="20">
  <path d="M21.808594 0C21.652219 0 21.495953 0.0601875 21.376953 0.1796875L20.154297 1.4003906L22.599609 3.8457031L23.820312 2.6230469C24.059313 2.3840469 24.059313 1.9977656 23.820312 1.7597656L22.240234 0.1796875C22.120734 0.0601875 21.964969 0 21.808594 0 z M 19.289062 2.265625L12 9.5566406L12 12L14.443359 12L21.734375 4.7089844L19.289062 2.265625 z M 5 3C3.895 3 3 3.895 3 5L3 19C3 20.103 3.897 21 5 21L19 21C20.103 21 21 20.103 21 19L21 8.2714844L19 10.273438L18.998047 19L5 19L5 7L11.728516 7L15.728516 3L5 3 z" fill="#514631" />
</svg>